<svg id="Capa_1" enable-background="new 0 0 511.674 511.674" height="512" viewBox="0 0 511.674 511.674" width="512" xmlns="http://www.w3.org/2000/svg"><g><g><path d="m190.539 450.098 119.299 7.755 96.632-27.439 29.516-6.04c31.136-39.224 49.73-88.852 49.73-142.82 0-80.36-41.23-151.07-103.68-192.17l-21.173-35.64h-209.302l-21.705 35.64c-62.58 41.19-104 112.08-103.94 192.36.051 60.17 23.221 114.924 61.101 155.873z" fill="#a6e7f0"/><g><path d="m87.017 437.616 36.272 7.668 29.821-19.466c-31.792-39.399-50.848-89.504-50.894-144.062-.06-80.28 41.36-151.17 103.94-192.36l21.705-35.64h-76.289l-21.705 35.64c-62.58 41.19-104 112.08-103.94 192.36.051 60.164 23.217 114.913 61.09 155.86z" fill="#6bd9e7"/><g id="XMLID_282_"><g><path d="m436.007 424.376c-30.31 38.19-72.52 66.51-121.01 79.39-1.03.27-2.09.41-3.16.41h-112c-1.06 0-2.13-.14-3.16-.41-42.7-11.35-80.53-34.66-109.66-66.15l15.58-6.45c33.97-14.03 72.27-13.12 105.53 2.5l3.22 1.51c36.54 17.16 78.96 16.49 114.93-1.83 18.45-9.4 38.79-14.24 59.34-14.24 5.38 0 10.78.33 16.16 1z" fill="#fdd79b"/></g></g><g id="XMLID_283_"><g><g fill="#feca9c"><path d="m441.677 357.266-23.04-48.12 23.04-48.12c2.48-5.18-1.3-11.18-7.04-11.18-9.78 0-19.4 1.67-28.48 4.88s-17.62 7.95-25.23 14.08l-34.49 27.82-9.594 6.816v15.763l9.594 2.471 34.49 27.82c15.21 12.26 34.16 18.95 53.71 18.95 4.51 0 7.81-3.7 7.81-7.81 0-1.11-.24-2.26-.77-3.37z"/><path d="m329.394 248.843c4.245-7.221.323-16.491-7.815-18.474l-25.867-6.301c-28.465-6.934-58.531.052-81.024 18.825l-30.94 33.441 124.612 16.66z"/><path d="m320.835 362.828c0 20.013-19.41 34.284-38.513 28.316l-43.981-13.741-40.633-11.46 123.127-58.543z"/></g><path d="m346.437 296.626v25.05l-5.62 6.87c-48.75 59.59-137.71 65.56-193.99 13.02l-23.11-21.58c-6.27-5.86-6.27-15.81 0-21.67l23.11-21.58c56.28-52.54 145.24-46.57 193.99 13.02z" fill="#fea95c"/></g></g><path d="m187 256.346 4.817 7.029c19.105 27.878 19.574 64.218 1.194 92.58l-6.277 9.686c-.026.04-.051.08-.076.12l-.741 1.193c4.754 2.007 9.594 3.732 14.498 5.158l5.184-8c21.682-33.458 21.129-76.328-1.409-109.216l-4.975-7.26c-.105-.153-.216-.303-.333-.448l-.341-.426c-5.009 1.537-9.949 3.377-14.793 5.524z" fill="#fe9738"/><g><path d="m163.669 309.296c-4.142 0-7.5-3.358-7.5-7.5v-5.174c0-4.142 3.358-7.5 7.5-7.5s7.5 3.358 7.5 7.5v5.174c0 4.142-3.357 7.5-7.5 7.5z" fill="#918291"/></g><path d="m242.791 323.021 5.526 2.949c12.699 6.776 28.039-2.425 28.039-16.819 0-14.393-15.34-23.595-28.039-16.819l-5.526 2.949c-1.722.919-2.798 2.712-2.798 4.664v18.412c.001 1.951 1.076 3.745 2.798 4.664z" fill="#fe9738"/><g fill="#6bd9e7"><circle cx="129.663" cy="213.76" r="17.885"/><circle cx="210.041" cy="153.228" r="33.074"/></g></g><path d="m199.837 504.176h76.287c-1.059 0-2.129-.14-3.158-.41-49.78-13.22-92.919-42.729-123.386-82.465-15.968.36-31.902 3.636-46.983 9.865l-15.58 6.45c29.13 31.49 66.96 54.8 109.66 66.15 1.03.27 2.1.41 3.16.41z" fill="#fccd7f"/><path d="m409.807 28.896v39.1c0 11.81-9.58 21.39-21.4 21.39h-6.35-252.18-6.61c-11.82 0-21.4-9.58-21.4-21.39v-39.1c0-11.82 9.58-21.4 21.4-21.4h265.14c11.82 0 21.4 9.58 21.4 21.4z" fill="#fdd79b"/></g><g><path d="m467.691 174.344c-1.874-3.695-6.386-5.168-10.082-3.296-3.694 1.874-5.17 6.387-3.296 10.082 15.874 31.299 23.922 65.086 23.922 100.425 0 50.048-16.767 97.044-45.559 134.839l-29.972-3.732c-27.515-3.426-55.118 1.415-79.827 13.998-34.157 17.395-73.646 18.025-108.343 1.729l-3.216-1.511c-8.755-4.112-17.972-7.311-27.395-9.506-4.037-.942-8.066 1.568-9.006 5.602s1.568 8.066 5.602 9.006c8.4 1.958 16.617 4.809 24.422 8.475l3.216 1.511c18.306 8.598 38.597 13.117 58.826 13.117.72 0 1.442-.006 2.162-.018 20.941-.334 41.875-5.535 60.538-15.039 22.028-11.217 46.639-15.532 71.167-12.479l20.495 2.552c-28.174 31.445-65.367 55.026-108.276 66.42-.389.104-.804.156-1.234.156h-111.994c-.433 0-.851-.053-1.242-.157-38.113-10.121-71.722-29.865-98.506-56.196l5.372-2.22c14.303-5.91 29.417-9.043 44.924-9.313 4.142-.072 7.44-3.488 7.369-7.629-.072-4.141-3.484-7.433-7.629-7.369-17.392.302-34.347 3.817-50.392 10.447l-10.682 4.414c-34.866-39.597-55.571-91.373-55.617-146.91-.061-74.306 36.821-143.231 98.75-184.853h158.013c4.142 0 7.5-3.358 7.5-7.5s-3.358-7.5-7.5-7.5h-166.934c-7.662 0-13.895-6.233-13.895-13.895v-39.099c0-7.662 6.233-13.895 13.895-13.895h26.993c4.142 0 7.5-3.358 7.5-7.5s-3.358-7.5-7.5-7.5h-26.993c-15.933 0-28.895 12.962-28.895 28.895v39.099c0 11.391 6.625 21.263 16.224 25.966-58.09 44.995-92.218 113.905-92.157 187.795.089 107.441 72.59 201.716 176.312 229.261 1.647.437 3.359.659 5.09.659h111.996c1.729 0 3.439-.221 5.083-.658 103.812-27.566 176.315-121.924 176.315-229.462 0-37.719-8.594-73.79-25.544-107.211z"/><path d="m182.222 15h206.186c7.662 0 13.895 6.233 13.895 13.895v39.099c0 7.662-6.233 13.895-13.895 13.895h-60.765c-4.142 0-7.5 3.358-7.5 7.5s3.358 7.5 7.5 7.5h52.117c23.041 15.488 42.783 34.883 58.682 57.701 1.458 2.092 3.79 3.212 6.16 3.212 1.479 0 2.975-.437 4.281-1.347 3.398-2.368 4.233-7.043 1.865-10.441-13.873-19.909-30.479-37.384-49.516-52.13 9.516-4.733 16.07-14.561 16.07-25.89v-39.099c0-15.933-12.962-28.895-28.895-28.895h-206.185c-4.142 0-7.5 3.358-7.5 7.5s3.358 7.5 7.5 7.5z"/><path d="m447.587 249.5c-2.819-4.477-7.662-7.149-12.952-7.149-21.183 0-41.93 7.323-58.418 20.619l-28.694 23.139-.904-1.105c-5.697-6.964-11.946-13.28-18.656-18.924l7.898-13.437c3.237-5.508 3.667-12.041 1.177-17.924-2.489-5.884-7.477-10.125-13.684-11.638l-25.868-6.301c-29.934-7.292-61.876-.191-85.91 18.983-25.926 4.825-49.976 16.923-69.863 35.49l-23.111 21.577c-4.506 4.207-7.09 10.155-7.09 16.319s2.584 12.112 7.09 16.319l23.111 21.578c26.313 24.567 59.912 37.814 95.506 37.863l42.867 13.393c3.698 1.155 7.466 1.725 11.197 1.725 7.777 0 15.396-2.472 21.902-7.256 9.628-7.079 15.15-17.993 15.15-29.944v-10.918c6.57-5.564 12.691-11.778 18.283-18.613l.904-1.105 28.694 23.139c16.489 13.297 37.235 20.62 58.418 20.62 5.291 0 10.133-2.673 12.952-7.149s3.138-9.998.853-14.769l-21.492-44.881 21.492-44.881c2.286-4.772 1.967-10.293-.852-14.77zm-153.65-18.145 25.867 6.301c1.551.377 2.797 1.438 3.419 2.908s.515 3.102-.294 4.478l-7.03 11.959c-20.186-13.542-43.666-21.603-68.752-23.286-.346-.023-.69-.036-1.036-.056 15.225-5.259 31.861-6.192 47.826-2.304zm-165.099 83.15c-1.5-1.4-2.327-3.302-2.327-5.354s.826-3.954 2.327-5.355l23.111-21.578c10.904-10.18 23.209-18.18 36.442-23.842l3.426 4.999c19.105 27.878 19.574 64.218 1.194 92.58l-3.008 4.642c-13.846-5.693-26.71-13.922-38.054-24.513zm175.461 66.182c-5.742 4.222-12.937 5.423-19.74 3.299l-11.405-3.563c14.319-3.674 27.834-9.552 40.176-17.441-.047 7.066-3.33 13.513-9.031 17.705zm30.71-56.889c-22.249 27.195-53.809 43.468-88.867 45.82-2.912.195-5.807.292-8.693.292-11.222 0-22.222-1.476-32.795-4.34l.946-1.459c21.682-33.458 21.129-76.328-1.409-109.216l-1.175-1.714c11.073-3.163 22.63-4.792 34.433-4.792 2.884 0 5.783.097 8.693.292 35.058 2.353 66.618 18.625 88.867 45.821l3.925 4.797v19.702zm99.903-66.007-23.043 48.121c-.981 2.048-.981 4.43 0 6.479l23.043 48.121c.038.079.073.153-.017.295-.09.144-.172.144-.26.144-17.769 0-35.171-6.143-49.002-17.296l-31.699-25.562v-17.882l31.699-25.562c13.831-11.153 31.234-17.296 49.002-17.296.087 0 .169 0 .26.144.09.14.054.214.017.294z"/><path d="m163.669 289.122c-4.142 0-7.5 3.358-7.5 7.5v5.174c0 4.142 3.358 7.5 7.5 7.5s7.5-3.358 7.5-7.5v-5.174c0-4.142-3.357-7.5-7.5-7.5z"/><path d="m270.956 286.371c-8.078-4.845-17.86-5.09-26.17-.656l-8.323 4.441c-3.654 1.95-5.036 6.493-3.086 10.147 1.95 3.655 6.493 5.035 10.147 3.086l8.323-4.441c3.672-1.958 7.824-1.854 11.393.286 3.568 2.141 5.615 5.755 5.615 9.917s-2.047 7.776-5.615 9.917c-3.568 2.14-7.721 2.244-11.393.286l-8.323-4.441c-3.655-1.952-8.198-.569-10.147 3.086-1.95 3.654-.568 8.198 3.086 10.147l8.323 4.441c3.954 2.11 8.239 3.16 12.518 3.16 4.714 0 9.418-1.276 13.652-3.816 8.077-4.845 12.899-13.361 12.899-22.78s-4.822-17.935-12.899-22.78z"/><path d="m155.047 213.76c0-13.997-11.387-25.384-25.384-25.384s-25.385 11.387-25.385 25.384 11.388 25.385 25.385 25.385 25.384-11.388 25.384-25.385zm-35.769 0c0-5.726 4.659-10.384 10.385-10.384s10.384 4.658 10.384 10.384-4.658 10.385-10.384 10.385-10.385-4.659-10.385-10.385z"/><path d="m250.615 153.228c0-22.373-18.202-40.574-40.574-40.574s-40.574 18.202-40.574 40.574 18.202 40.574 40.574 40.574 40.574-18.201 40.574-40.574zm-66.149 0c0-14.102 11.473-25.574 25.574-25.574s25.574 11.473 25.574 25.574-11.473 25.574-25.574 25.574-25.574-11.472-25.574-25.574z"/></g></g></svg>